<?xml version="1.0" encoding="utf-8"?>
<!-- Generator: Adobe Illustrator 26.0.1, SVG Export Plug-In . SVG Version: 6.00 Build 0)  -->
<svg version="1.1" id="Слой_1" xmlns="http://www.w3.org/2000/svg" xmlns:xlink="http://www.w3.org/1999/xlink" x="0px" y="0px"
	 viewBox="0 0 1920 920" style="enable-background:new 0 0 1920 920;" xml:space="preserve">
<style type="text/css">
	.st0{fill:#FFFFFF;}
</style>
<g>
	<rect x="0.5" y="0.5" width="1919" height="919"/>
	<path d="M1919,1v918H1V1H1919 M1920,0H0v920h1920V0L1920,0z"/>
</g>
<g>
	<g id="Слой_2_00000018927550697742121790000004178622405812486020_">
		<rect y="0.5" width="360" height="919.5"/>
	</g>
	<g id="Слой_1_00000084509885838485857470000004534142971981991313_">
		<rect x="53" y="1" class="st0" width="9" height="70"/>
		<polygon class="st0" points="83.5,1 83.5,105.2 28.4,105.2 29,439.5 43.9,439.5 44,119.8 83.5,119.9 83.5,353.9 98,355.3 98,1 		
			"/>
		<polygon class="st0" points="166.5,1 182.3,1 182,85.1 212.3,85.1 212,272.2 203.8,272.2 204,94 182,94 182,344.4 208.7,344.4 
			209,531.5 200,531.5 200,352.4 182,352.4 182,574.1 166.5,574.1 166.5,197.5 145,197 145,375.8 137,376.1 137,189.1 167,189 		"/>
		<polygon class="st0" points="313.5,1 322.1,1 322,163.3 313.5,163.3 		"/>
		<polygon class="st0" points="265.6,1 281,1 281,201.9 334.9,201.9 335,539.4 320,539.4 320,216.8 281,216.8 281,508.7 
			265.6,508.9 		"/>
		<ellipse class="st0" cx="37" cy="445.4" rx="19" ry="18.8"/>
		<ellipse class="st0" cx="91" cy="364.2" rx="19" ry="18.8"/>
		<ellipse class="st0" cx="175" cy="581" rx="19" ry="18.8"/>
		<ellipse class="st0" cx="273" cy="516.7" rx="19" ry="18.8"/>
		<ellipse class="st0" cx="328" cy="547.3" rx="19" ry="18.8"/>
		<ellipse class="st0" cx="141.1" cy="380.1" rx="11" ry="10.9"/>
		<ellipse class="st0" cx="317.8" cy="167.7" rx="11" ry="10.9"/>
		<ellipse class="st0" cx="57.5" cy="76.2" rx="11" ry="10.9"/>
		<ellipse class="st0" cx="205" cy="537.5" rx="11" ry="10.9"/>
		<ellipse class="st0" cx="208" cy="278.6" rx="11" ry="10.9"/>
	</g>
</g>
<g>
	<g id="Слой_2_00000057841772506967031160000001648422715176267426_">
		<rect x="1560" y="1" width="360" height="919"/>
	</g>
	<g id="Слой_1_00000104667760883813622550000000707753020927923615_">
		<rect x="1863" y="1" class="st0" width="9" height="69.9"/>
		<polygon class="st0" points="1841.5,1 1841.5,105.2 1896.7,105.2 1896,439.2 1881.1,439.2 1881,119.7 1841.5,119.8 1841.5,353.7 
			1827,355.1 1827,1 		"/>
		<polygon class="st0" points="1758.5,1 1742.7,1 1743,85.1 1712.7,85.1 1713,272 1721.2,272 1721,94 1743,94 1743,344.3 
			1716.3,344.3 1716,531.2 1725,531.2 1725,352.2 1743,352.2 1743,573.8 1758.5,573.8 1758.5,197.3 1780,196.9 1780,375.6 
			1788,375.9 1788,189.1 1758,188.9 		"/>
		<polygon class="st0" points="1611.5,1 1602.9,1 1603,163.2 1611.5,163.2 		"/>
		<polygon class="st0" points="1659.4,1 1644,1 1644,201.8 1590.1,201.8 1590,539.1 1605,539.1 1605,216.6 1644,216.6 1644,508.5 
			1659.4,508.7 		"/>
		<ellipse class="st0" cx="1888" cy="445.2" rx="19" ry="18.8"/>
		<ellipse class="st0" cx="1750.4" cy="580" rx="19" ry="18.8"/>
		<ellipse class="st0" cx="1834" cy="364" rx="19" ry="18.8"/>
		<ellipse class="st0" cx="1652" cy="516.4" rx="19" ry="18.8"/>
		<ellipse class="st0" cx="1597" cy="547.1" rx="19" ry="18.8"/>
		<ellipse class="st0" cx="1783.9" cy="379.9" rx="11" ry="10.9"/>
		<ellipse class="st0" cx="1607.2" cy="167.5" rx="11" ry="10.9"/>
		<ellipse class="st0" cx="1867.5" cy="76.2" rx="11" ry="10.9"/>
		<ellipse class="st0" cx="1720" cy="537.2" rx="11" ry="10.9"/>
		<ellipse class="st0" cx="1717" cy="278.5" rx="11" ry="10.9"/>
	</g>
</g>
</svg>
